<svg width="347" height="347" viewBox="0 0 347 347" fill="none" xmlns="http://www.w3.org/2000/svg">
<rect width="347" height="347" fill="#15111D"/>
<path d="M104.724 28H272.827V267.044H248.151V157.547H247.909C245.182 127.284 219.748 103.569 188.776 103.569C157.803 103.569 132.369 127.284 129.642 157.547H129.4V267.044H104.724V28Z" fill="#33FF00"/>
<path d="M60 61.9289L70.0244 95.8578H78.5067V233.116C74.2479 233.116 70.7956 236.568 70.7956 240.827V250.08H69.2533C64.9946 250.08 61.5422 253.532 61.5422 257.791V267.044H147.907V257.791C147.907 253.532 144.454 250.08 140.196 250.08H138.653V240.827C138.653 236.568 135.201 233.116 130.942 233.116H121.689V61.9289H60Z" fill="#33FF00"/>
<path d="M249.693 233.116C245.435 233.116 241.982 236.568 241.982 240.827V250.08H240.44C236.181 250.08 232.729 253.532 232.729 257.791V267.044H319.093V257.791C319.093 253.532 315.641 250.08 311.382 250.08H309.84V240.827C309.84 236.568 306.388 233.116 302.129 233.116V95.8578H310.611L320.636 61.9289H258.947V233.116H249.693Z" fill="#33FF00"/>
<path d="M94.7244 28H262.827V267.044H238.151V157.547H237.909C235.182 127.284 209.748 103.569 178.776 103.569C147.803 103.569 122.369 127.284 119.642 157.547H119.4V267.044H94.7244V28Z" fill="#527BFF"/>
<path d="M50 61.9289L60.0244 95.8578H68.5067V233.116C64.2479 233.116 60.7956 236.568 60.7956 240.827V250.08H59.2533C54.9946 250.08 51.5422 253.532 51.5422 257.791V267.044H137.907V257.791C137.907 253.532 134.454 250.08 130.196 250.08H128.653V240.827C128.653 236.568 125.201 233.116 120.942 233.116H111.689V61.9289H50Z" fill="#527BFF"/>
<path d="M239.693 233.116C235.435 233.116 231.982 236.568 231.982 240.827V250.08H230.44C226.181 250.08 222.729 253.532 222.729 257.791V267.044H309.093V257.791C309.093 253.532 305.641 250.08 301.382 250.08H299.84V240.827C299.84 236.568 296.388 233.116 292.129 233.116V95.8578H300.611L310.636 61.9289H248.947V233.116H239.693Z" fill="#527BFF"/>
<path d="M82.7244 28H250.827V267.044H226.151V157.547H225.909C223.182 127.284 197.748 103.569 166.776 103.569C135.803 103.569 110.369 127.284 107.642 157.547H107.4V267.044H82.7244V28Z" fill="white"/>
<path d="M38 61.9289L48.0244 95.8578H56.5067V233.116C52.2479 233.116 48.7956 236.568 48.7956 240.827V250.08H47.2533C42.9946 250.08 39.5422 253.532 39.5422 257.791V267.044H125.907V257.791C125.907 253.532 122.454 250.08 118.196 250.08H116.653V240.827C116.653 236.568 113.201 233.116 108.942 233.116H99.6889V61.9289H38Z" fill="white"/>
<path d="M227.693 233.116C223.435 233.116 219.982 236.568 219.982 240.827V250.08H218.44C214.181 250.08 210.729 253.532 210.729 257.791V267.044H297.093V257.791C297.093 253.532 293.641 250.08 289.382 250.08H287.84V240.827C287.84 236.568 284.388 233.116 280.129 233.116V95.8578H288.611L298.636 61.9289H236.947V233.116H227.693Z" fill="white"/>
<path d="M71.7244 28H239.827V267.044H215.151V157.547H214.909C212.182 127.284 186.748 103.569 155.776 103.569C124.803 103.569 99.3692 127.284 96.6421 157.547H96.4V267.044H71.7244V28Z" fill="#855DCD"/>
<path d="M27 61.9289L37.0244 95.8578H45.5067V233.116C41.2479 233.116 37.7956 236.568 37.7956 240.827V250.08H36.2533C31.9946 250.08 28.5422 253.532 28.5422 257.791V267.044H114.907V257.791C114.907 253.532 111.454 250.08 107.196 250.08H105.653V240.827C105.653 236.568 102.201 233.116 97.9422 233.116H88.6889V61.9289H27Z" fill="#855DCD"/>
<path d="M216.693 233.116C212.435 233.116 208.982 236.568 208.982 240.827V250.08H207.44C203.181 250.08 199.729 253.532 199.729 257.791V267.044H286.093V257.791C286.093 253.532 282.641 250.08 278.382 250.08H276.84V240.827C276.84 236.568 273.388 233.116 269.129 233.116V95.8578H277.611L287.636 61.9289H225.947V233.116H216.693Z" fill="#855DCD"/>
<path d="M66.1016 305.611L69.6348 295.521H74.5566V316H70.6719V301.639L67.5254 311.166L64.6953 311.148L61.4258 301.533V316H57.541V295.521H62.5859L66.1016 305.611ZM80.4453 295.539H95V299.037H89.7617V312.52H95V316H80.4453V312.52H85.543V299.037H80.4453V295.539ZM116.727 316H112.648L105.529 302.412L105.582 316H101.469V295.521H105.564L112.648 309.127L112.596 295.521H116.727V316ZM140.369 298.932H133.057V316H128.803V298.932H121.578V295.521H140.369V298.932ZM160.373 319.322H144.307V316H160.373V319.322ZM182.521 309.145C182.428 310.352 182.135 311.4 181.643 312.291C181.15 313.182 180.518 313.926 179.744 314.523C178.971 315.109 178.074 315.549 177.055 315.842C176.047 316.135 174.98 316.281 173.855 316.281C172.508 316.281 171.283 316.047 170.182 315.578C169.092 315.109 168.16 314.465 167.387 313.645C166.613 312.812 166.01 311.834 165.576 310.709C165.154 309.584 164.943 308.365 164.943 307.053V304.504C164.943 303.168 165.16 301.938 165.594 300.812C166.039 299.688 166.66 298.709 167.457 297.877C168.242 297.045 169.174 296.4 170.252 295.943C171.342 295.475 172.537 295.24 173.838 295.24C175.057 295.24 176.176 295.398 177.195 295.715C178.215 296.031 179.1 296.494 179.85 297.104C180.6 297.725 181.209 298.486 181.678 299.389C182.146 300.279 182.439 301.305 182.557 302.465H178.32C178.273 301.879 178.15 301.363 177.951 300.918C177.764 300.461 177.5 300.068 177.16 299.74C176.773 299.377 176.305 299.102 175.754 298.914C175.203 298.727 174.564 298.633 173.838 298.633C173.088 298.633 172.42 298.791 171.834 299.107C171.26 299.412 170.773 299.828 170.375 300.355C169.977 300.883 169.672 301.504 169.461 302.219C169.262 302.922 169.156 303.678 169.145 304.486V307.053C169.156 307.885 169.262 308.658 169.461 309.373C169.672 310.076 169.971 310.691 170.357 311.219C170.756 311.746 171.248 312.162 171.834 312.467C172.42 312.771 173.094 312.924 173.855 312.924C174.5 312.924 175.092 312.848 175.631 312.695C176.182 312.531 176.65 312.279 177.037 311.939C177.4 311.635 177.693 311.254 177.916 310.797C178.139 310.34 178.273 309.789 178.32 309.145H182.521ZM199.906 311.693H191.434L189.799 316H185.51L193.684 295.521H197.656L205.812 316H201.559L199.906 311.693ZM192.629 308.494H198.693L195.951 301.27L195.652 300.514L195.371 301.252L192.629 308.494ZM221.791 310.586C221.791 310.164 221.703 309.812 221.527 309.531C221.352 309.238 221.076 308.957 220.701 308.688C220.303 308.406 219.781 308.172 219.137 307.984C218.504 307.785 217.859 307.604 217.203 307.439C216.16 307.182 215.176 306.895 214.25 306.578C213.324 306.262 212.516 305.869 211.824 305.4C211.133 304.92 210.588 304.334 210.189 303.643C209.803 302.951 209.609 302.102 209.609 301.094C209.609 300.098 209.838 299.23 210.295 298.492C210.764 297.742 211.391 297.121 212.176 296.629C212.891 296.172 213.717 295.826 214.654 295.592C215.592 295.357 216.559 295.24 217.555 295.24C218.645 295.24 219.682 295.363 220.666 295.609C221.65 295.844 222.518 296.219 223.268 296.734C224.006 297.25 224.598 297.912 225.043 298.721C225.5 299.529 225.752 300.49 225.799 301.604H221.58C221.568 301.1 221.451 300.654 221.229 300.268C221.018 299.869 220.725 299.535 220.35 299.266C219.975 299.008 219.547 298.809 219.066 298.668C218.586 298.527 218.082 298.457 217.555 298.457C217.039 298.457 216.547 298.516 216.078 298.633C215.609 298.738 215.199 298.896 214.848 299.107C214.484 299.318 214.197 299.582 213.986 299.898C213.775 300.215 213.67 300.572 213.67 300.971C213.67 301.381 213.758 301.732 213.934 302.025C214.121 302.307 214.379 302.547 214.707 302.746C215.141 303.004 215.674 303.232 216.307 303.432C216.951 303.631 217.607 303.807 218.275 303.959C219.318 304.217 220.303 304.516 221.229 304.855C222.154 305.184 222.963 305.594 223.654 306.086C224.334 306.59 224.873 307.199 225.271 307.914C225.67 308.617 225.869 309.479 225.869 310.498C225.869 311.506 225.646 312.373 225.201 313.1C224.756 313.814 224.17 314.406 223.443 314.875C222.658 315.355 221.762 315.713 220.754 315.947C219.746 316.17 218.697 316.281 217.607 316.281C216.775 316.281 215.943 316.205 215.111 316.053C214.279 315.9 213.506 315.648 212.791 315.297C212.252 315.086 211.754 314.822 211.297 314.506C210.84 314.178 210.441 313.797 210.102 313.363C209.738 312.906 209.445 312.379 209.223 311.781C209.012 311.172 208.895 310.486 208.871 309.725H213.107C213.119 310.357 213.254 310.891 213.512 311.324C213.77 311.758 214.115 312.104 214.549 312.361C214.971 312.631 215.457 312.824 216.008 312.941C216.57 313.047 217.15 313.1 217.748 313.1C218.287 313.1 218.797 313.047 219.277 312.941C219.77 312.824 220.203 312.66 220.578 312.449C220.941 312.238 221.229 311.975 221.439 311.658C221.662 311.342 221.779 310.984 221.791 310.586ZM248.475 298.932H241.162V316H236.908V298.932H229.684V295.521H248.475V298.932ZM266.949 307.088H257.105V312.625H268.531V316H252.869V295.521H268.549V298.932H257.105V303.678H266.949V307.088ZM282.172 308.529H278.146V316H273.945V295.521H281.961C283.086 295.521 284.135 295.65 285.107 295.908C286.092 296.154 286.947 296.529 287.674 297.033C288.4 297.549 288.969 298.193 289.379 298.967C289.801 299.74 290.012 300.66 290.012 301.727C290.012 302.512 289.912 303.203 289.713 303.801C289.525 304.387 289.25 304.902 288.887 305.348C288.535 305.805 288.113 306.203 287.621 306.543C287.129 306.883 286.596 307.182 286.021 307.439L290.873 315.807V316H286.355L282.172 308.529ZM278.146 305.154H282.014C282.541 305.143 283.033 305.072 283.49 304.943C283.959 304.814 284.363 304.627 284.703 304.381C285.043 304.135 285.312 303.824 285.512 303.449C285.711 303.062 285.811 302.605 285.811 302.078C285.811 301.527 285.711 301.053 285.512 300.654C285.312 300.256 285.031 299.934 284.668 299.688C284.328 299.441 283.924 299.26 283.455 299.143C282.998 299.025 282.5 298.961 281.961 298.949H278.146V305.154Z" fill="white"/>
</svg>
