<svg width="347" height="347" viewBox="0 0 347 347" fill="none" xmlns="http://www.w3.org/2000/svg">
<rect width="347" height="347" fill="#855DCD"/>
<path d="M88.7244 35H256.827V274.044H232.151V164.547H231.909C229.182 134.284 203.748 110.569 172.776 110.569C141.803 110.569 116.369 134.284 113.642 164.547H113.4V274.044H88.7244V35Z" fill="url(#paint0_linear_529_588)"/>
<path d="M44 68.9289L54.0244 102.858H62.5067V240.116C58.2479 240.116 54.7956 243.568 54.7956 247.827V257.08H53.2533C48.9946 257.08 45.5422 260.532 45.5422 264.791V274.044H131.907V264.791C131.907 260.532 128.454 257.08 124.196 257.08H122.653V247.827C122.653 243.568 119.201 240.116 114.942 240.116H105.689V68.9289H44Z" fill="url(#paint1_linear_529_588)"/>
<path d="M233.693 240.116C229.435 240.116 225.982 243.568 225.982 247.827V257.08H224.44C220.181 257.08 216.729 260.532 216.729 264.791V274.044H303.093V264.791C303.093 260.532 299.641 257.08 295.382 257.08H293.84V247.827C293.84 243.568 290.388 240.116 286.129 240.116V102.858H294.611L304.636 68.9289H242.947V240.116H233.693Z" fill="url(#paint2_linear_529_588)"/>
<path d="M65.9141 314.457L69.8398 303.246H75.3086V326H70.9922V310.043L67.4961 320.629L64.3516 320.609L60.7188 309.926V326H56.4023V303.246H62.0078L65.9141 314.457ZM81.8516 303.266H98.0234V307.152H92.2031V322.133H98.0234V326H81.8516V322.133H87.5156V307.152H81.8516V303.266ZM122.164 326H117.633L109.723 310.902L109.781 326H105.211V303.246H109.762L117.633 318.363L117.574 303.246H122.164V326ZM148.434 307.035H140.309V326H135.582V307.035H127.555V303.246H148.434V307.035ZM171.246 318.383C171.142 319.724 170.816 320.889 170.27 321.879C169.723 322.868 169.02 323.695 168.16 324.359C167.301 325.01 166.305 325.499 165.172 325.824C164.052 326.15 162.867 326.312 161.617 326.312C160.12 326.312 158.759 326.052 157.535 325.531C156.324 325.01 155.289 324.294 154.43 323.383C153.57 322.458 152.9 321.371 152.418 320.121C151.949 318.871 151.715 317.517 151.715 316.059V313.227C151.715 311.742 151.956 310.375 152.438 309.125C152.932 307.875 153.622 306.788 154.508 305.863C155.38 304.939 156.415 304.223 157.613 303.715C158.824 303.194 160.152 302.934 161.598 302.934C162.952 302.934 164.195 303.109 165.328 303.461C166.461 303.812 167.444 304.327 168.277 305.004C169.111 305.694 169.788 306.54 170.309 307.543C170.829 308.533 171.155 309.672 171.285 310.961H166.578C166.526 310.31 166.389 309.737 166.168 309.242C165.96 308.734 165.667 308.298 165.289 307.934C164.859 307.53 164.339 307.224 163.727 307.016C163.115 306.807 162.405 306.703 161.598 306.703C160.764 306.703 160.022 306.879 159.371 307.23C158.733 307.569 158.193 308.031 157.75 308.617C157.307 309.203 156.969 309.893 156.734 310.688C156.513 311.469 156.396 312.309 156.383 313.207V316.059C156.396 316.983 156.513 317.842 156.734 318.637C156.969 319.418 157.301 320.102 157.73 320.688C158.173 321.273 158.72 321.736 159.371 322.074C160.022 322.413 160.771 322.582 161.617 322.582C162.333 322.582 162.991 322.497 163.59 322.328C164.202 322.146 164.723 321.866 165.152 321.488C165.556 321.15 165.882 320.727 166.129 320.219C166.376 319.711 166.526 319.099 166.578 318.383H171.246ZM190.562 321.215H181.148L179.332 326H174.566L183.648 303.246H188.062L197.125 326H192.398L190.562 321.215ZM182.477 317.66H189.215L186.168 309.633L185.836 308.793L185.523 309.613L182.477 317.66ZM214.879 319.984C214.879 319.516 214.781 319.125 214.586 318.812C214.391 318.487 214.085 318.174 213.668 317.875C213.225 317.562 212.646 317.302 211.93 317.094C211.227 316.872 210.51 316.671 209.781 316.488C208.622 316.202 207.529 315.883 206.5 315.531C205.471 315.18 204.573 314.743 203.805 314.223C203.036 313.689 202.431 313.038 201.988 312.27C201.559 311.501 201.344 310.557 201.344 309.438C201.344 308.331 201.598 307.367 202.105 306.547C202.626 305.714 203.323 305.023 204.195 304.477C204.99 303.969 205.908 303.585 206.949 303.324C207.991 303.064 209.065 302.934 210.172 302.934C211.383 302.934 212.535 303.07 213.629 303.344C214.723 303.604 215.686 304.021 216.52 304.594C217.34 305.167 217.997 305.902 218.492 306.801C219 307.699 219.28 308.767 219.332 310.004H214.645C214.632 309.444 214.501 308.949 214.254 308.52C214.02 308.077 213.694 307.706 213.277 307.406C212.861 307.12 212.385 306.898 211.852 306.742C211.318 306.586 210.758 306.508 210.172 306.508C209.599 306.508 209.052 306.573 208.531 306.703C208.01 306.82 207.555 306.996 207.164 307.23C206.76 307.465 206.441 307.758 206.207 308.109C205.973 308.461 205.855 308.858 205.855 309.301C205.855 309.757 205.953 310.147 206.148 310.473C206.357 310.785 206.643 311.052 207.008 311.273C207.49 311.56 208.082 311.814 208.785 312.035C209.501 312.257 210.23 312.452 210.973 312.621C212.132 312.908 213.225 313.24 214.254 313.617C215.283 313.982 216.181 314.438 216.949 314.984C217.704 315.544 218.303 316.221 218.746 317.016C219.189 317.797 219.41 318.754 219.41 319.887C219.41 321.007 219.163 321.97 218.668 322.777C218.173 323.572 217.522 324.229 216.715 324.75C215.842 325.284 214.846 325.681 213.727 325.941C212.607 326.189 211.441 326.312 210.23 326.312C209.306 326.312 208.382 326.228 207.457 326.059C206.533 325.889 205.673 325.609 204.879 325.219C204.28 324.984 203.727 324.691 203.219 324.34C202.711 323.975 202.268 323.552 201.891 323.07C201.487 322.562 201.161 321.977 200.914 321.312C200.68 320.635 200.549 319.874 200.523 319.027H205.23C205.243 319.73 205.393 320.323 205.68 320.805C205.966 321.286 206.35 321.671 206.832 321.957C207.301 322.257 207.841 322.471 208.453 322.602C209.078 322.719 209.723 322.777 210.387 322.777C210.986 322.777 211.552 322.719 212.086 322.602C212.633 322.471 213.115 322.289 213.531 322.055C213.935 321.82 214.254 321.527 214.488 321.176C214.736 320.824 214.866 320.427 214.879 319.984ZM244.527 307.035H236.402V326H231.676V307.035H223.648V303.246H244.527V307.035ZM265.055 316.098H254.117V322.25H266.812V326H249.41V303.246H266.832V307.035H254.117V312.309H265.055V316.098ZM281.969 317.699H277.496V326H272.828V303.246H281.734C282.984 303.246 284.15 303.389 285.23 303.676C286.324 303.949 287.275 304.366 288.082 304.926C288.889 305.499 289.521 306.215 289.977 307.074C290.445 307.934 290.68 308.956 290.68 310.141C290.68 311.013 290.569 311.781 290.348 312.445C290.139 313.096 289.833 313.669 289.43 314.164C289.039 314.672 288.57 315.115 288.023 315.492C287.477 315.87 286.884 316.202 286.246 316.488L291.637 325.785V326H286.617L281.969 317.699ZM277.496 313.949H281.793C282.379 313.936 282.926 313.858 283.434 313.715C283.954 313.572 284.404 313.363 284.781 313.09C285.159 312.816 285.458 312.471 285.68 312.055C285.901 311.625 286.012 311.117 286.012 310.531C286.012 309.919 285.901 309.392 285.68 308.949C285.458 308.507 285.146 308.148 284.742 307.875C284.365 307.602 283.915 307.4 283.395 307.27C282.887 307.139 282.333 307.068 281.734 307.055H277.496V313.949Z" fill="url(#paint3_linear_529_588)"/>
<circle cx="148" cy="165" r="10" fill="white"/>
<circle cx="200" cy="165" r="10" fill="white"/>
<path d="M138 206.5C138 210.637 138.933 214.733 140.746 218.555C142.559 222.376 145.216 225.849 148.565 228.774C151.915 231.699 155.892 234.019 160.268 235.602C164.645 237.185 169.335 238 174.073 238C178.81 238 183.5 237.185 187.877 235.602C192.253 234.019 196.23 231.699 199.58 228.774C202.929 225.849 205.586 222.376 207.399 218.555C209.212 214.733 210.145 210.637 210.145 206.5L201.724 206.5C201.724 209.671 201.009 212.811 199.619 215.74C198.23 218.67 196.193 221.332 193.625 223.574C191.057 225.816 188.009 227.595 184.654 228.808C181.299 230.022 177.704 230.646 174.073 230.646C170.441 230.646 166.846 230.022 163.491 228.808C160.136 227.595 157.088 225.816 154.52 223.574C151.952 221.332 149.916 218.67 148.526 215.74C147.136 212.811 146.421 209.671 146.421 206.5H138Z" fill="white"/>
<defs>
<linearGradient id="paint0_linear_529_588" x1="174.318" y1="35" x2="174.318" y2="274.044" gradientUnits="userSpaceOnUse">
<stop stop-color="#6EF61B"/>
<stop offset="0.75" stop-color="white"/>
</linearGradient>
<linearGradient id="paint1_linear_529_588" x1="174.318" y1="35" x2="174.318" y2="274.044" gradientUnits="userSpaceOnUse">
<stop stop-color="#6EF61B"/>
<stop offset="0.75" stop-color="white"/>
</linearGradient>
<linearGradient id="paint2_linear_529_588" x1="174.318" y1="35" x2="174.318" y2="274.044" gradientUnits="userSpaceOnUse">
<stop stop-color="#6EF61B"/>
<stop offset="0.75" stop-color="white"/>
</linearGradient>
<linearGradient id="paint3_linear_529_588" x1="53" y1="310.5" x2="294" y2="310.5" gradientUnits="userSpaceOnUse">
<stop stop-color="#00FF1A"/>
<stop offset="0.16" stop-color="#00FF1A"/>
<stop offset="0.315" stop-color="#A1FF09"/>
<stop offset="0.44" stop-color="#FAFF00"/>
<stop offset="0.575" stop-color="#FCA300"/>
<stop offset="0.72" stop-color="#E4761B"/>
<stop offset="0.865" stop-color="#FF0000"/>
<stop offset="1" stop-color="#EBFF00"/>
</linearGradient>
</defs>
</svg>
